<svg width="40" height="40" viewBox="0 0 40 40" fill="none" xmlns="http://www.w3.org/2000/svg">
<g clip-path="url(#clip0_740_5)">
<path d="M20 23.75C18.5562 23.7512 17.1345 23.3946 15.8622 22.7121C14.5898 22.0297 13.5064 21.0426 12.7088 19.8391L14.7913 18.4548C15.3615 19.3143 16.1355 20.0193 17.0443 20.507C17.9532 20.9947 18.9686 21.2499 20 21.2499C21.0314 21.2499 22.0468 20.9947 22.9557 20.507C23.8645 20.0193 24.6385 19.3143 25.2088 18.4548L27.2913 19.8391C26.4936 21.0426 25.4102 22.0297 24.1378 22.7121C22.8655 23.3946 21.4438 23.7512 20 23.75Z" fill="white"/>
<path d="M25 10C24.5055 10 24.0222 10.1466 23.6111 10.4213C23.2 10.696 22.8795 11.0865 22.6903 11.5433C22.5011 12.0001 22.4516 12.5028 22.548 12.9877C22.6445 13.4727 22.8826 13.9181 23.2322 14.2678C23.5819 14.6174 24.0273 14.8555 24.5123 14.952C24.9972 15.0484 25.4999 14.9989 25.9567 14.8097C26.4135 14.6205 26.804 14.3 27.0787 13.8889C27.3534 13.4778 27.5 12.9945 27.5 12.5C27.5032 12.1708 27.4408 11.8442 27.3163 11.5395C27.1918 11.2347 27.0078 10.9578 26.775 10.725C26.5422 10.4922 26.2653 10.3082 25.9605 10.1837C25.6558 10.0592 25.3292 9.99676 25 10Z" fill="white"/>
<path d="M15 10C14.5055 10 14.0222 10.1466 13.6111 10.4213C13.2 10.696 12.8795 11.0865 12.6903 11.5433C12.5011 12.0001 12.4516 12.5028 12.548 12.9877C12.6445 13.4727 12.8826 13.9181 13.2322 14.2678C13.5819 14.6174 14.0273 14.8555 14.5123 14.952C14.9972 15.0484 15.4999 14.9989 15.9567 14.8097C16.4135 14.6205 16.804 14.3 17.0787 13.8889C17.3534 13.4778 17.5 12.9945 17.5 12.5C17.5032 12.1708 17.4408 11.8442 17.3163 11.5395C17.1918 11.2347 17.0078 10.9578 16.775 10.725C16.5422 10.4922 16.2653 10.3082 15.9605 10.1837C15.6558 10.0592 15.3292 9.99676 15 10Z" fill="white"/>
<path d="M22.1698 37.5L20 36.25L25 27.5H32.5C32.8285 27.5006 33.1538 27.4363 33.4574 27.3108C33.7609 27.1854 34.0368 27.0013 34.269 26.769C34.5013 26.5368 34.6854 26.2609 34.8108 25.9574C34.9363 25.6538 35.0006 25.3285 35 25V7.5C35.0006 7.17154 34.9363 6.8462 34.8108 6.54263C34.6854 6.23906 34.5013 5.96324 34.269 5.73099C34.0368 5.49873 33.7609 5.3146 33.4574 5.18916C33.1538 5.06372 32.8285 4.99944 32.5 5H7.5C7.17154 4.99944 6.8462 5.06372 6.54263 5.18916C6.23906 5.3146 5.96324 5.49873 5.73099 5.73099C5.49873 5.96324 5.3146 6.23906 5.18916 6.54263C5.06372 6.8462 4.99944 7.17154 5 7.5V25C4.99944 25.3285 5.06372 25.6538 5.18916 25.9574C5.3146 26.2609 5.49873 26.5368 5.73099 26.769C5.96324 27.0013 6.23906 27.1854 6.54263 27.3108C6.8462 27.4363 7.17154 27.5006 7.5 27.5H18.75V30H7.5C6.84336 30.0001 6.19313 29.8709 5.58645 29.6196C4.97977 29.3684 4.42853 29.0001 3.96421 28.5358C3.49989 28.0715 3.1316 27.5202 2.88037 26.9136C2.62914 26.3069 2.49989 25.6566 2.5 25V7.5C2.4998 6.84334 2.629 6.19307 2.8802 5.58635C3.1314 4.97963 3.49969 4.42836 3.96403 3.96403C4.42836 3.49969 4.97963 3.1314 5.58635 2.8802C6.19307 2.629 6.84334 2.4998 7.5 2.5H32.5C33.1567 2.4998 33.8069 2.629 34.4137 2.8802C35.0204 3.1314 35.5716 3.49969 36.036 3.96403C36.5003 4.42836 36.8686 4.97963 37.1198 5.58635C37.371 6.19307 37.5002 6.84334 37.5 7.5V25C37.5001 25.6566 37.3709 26.3069 37.1196 26.9136C36.8684 27.5202 36.5001 28.0715 36.0358 28.5358C35.5715 29.0001 35.0202 29.3684 34.4136 29.6196C33.8069 29.8709 33.1566 30.0001 32.5 30H26.4557L22.1698 37.5Z" fill="white"/>
</g>
<defs>
<clipPath id="clip0_740_5">
<rect width="40" height="40" fill="white"/>
</clipPath>
</defs>
</svg>
