<svg width="30" height="30" viewBox="0 0 30 30" fill="none" xmlns="http://www.w3.org/2000/svg">
<path d="M23.75 16.2501C23.4185 16.2501 23.1005 16.3818 22.8661 16.6162C22.6317 16.8507 22.5 17.1686 22.5 17.5001V17.9751L20.65 16.1251C19.9968 15.477 19.1139 15.1134 18.1938 15.1134C17.2736 15.1134 16.3907 15.477 15.7375 16.1251L14.8625 17.0001L11.7625 13.9001C11.1001 13.2696 10.2207 12.918 9.30625 12.918C8.39179 12.918 7.51235 13.2696 6.85 13.9001L5 15.7501V8.75011C5 8.41859 5.1317 8.10065 5.36612 7.86623C5.60054 7.63181 5.91848 7.50011 6.25 7.50011H15C15.3315 7.50011 15.6495 7.36842 15.8839 7.134C16.1183 6.89958 16.25 6.58163 16.25 6.25011C16.25 5.91859 16.1183 5.60065 15.8839 5.36623C15.6495 5.13181 15.3315 5.00011 15 5.00011H6.25C5.25544 5.00011 4.30161 5.3952 3.59835 6.09846C2.89509 6.80173 2.5 7.75555 2.5 8.75011V23.7501C2.5 24.7447 2.89509 25.6985 3.59835 26.4018C4.30161 27.105 5.25544 27.5001 6.25 27.5001H21.25C22.2446 27.5001 23.1984 27.105 23.9017 26.4018C24.6049 25.6985 25 24.7447 25 23.7501V17.5001C25 17.1686 24.8683 16.8507 24.6339 16.6162C24.3995 16.3818 24.0815 16.2501 23.75 16.2501ZM6.25 25.0001C5.91848 25.0001 5.60054 24.8684 5.36612 24.634C5.1317 24.3996 5 24.0816 5 23.7501V19.2876L8.625 15.6626C8.80864 15.4876 9.05258 15.39 9.30625 15.39C9.55992 15.39 9.80386 15.4876 9.9875 15.6626L13.95 19.6251L19.325 25.0001H6.25ZM22.5 23.7501C22.4982 23.9894 22.4193 24.2217 22.275 24.4126L16.6375 18.7501L17.5125 17.8751C17.6021 17.7836 17.7091 17.711 17.8271 17.6614C17.9452 17.6118 18.0719 17.5862 18.2 17.5862C18.3281 17.5862 18.4548 17.6118 18.5729 17.6614C18.6909 17.711 18.7979 17.7836 18.8875 17.8751L22.5 21.5126V23.7501ZM28.3875 5.36261L24.6375 1.61261C24.5186 1.49881 24.3784 1.40961 24.225 1.35011C23.9207 1.22509 23.5793 1.22509 23.275 1.35011C23.1216 1.40961 22.9814 1.49881 22.8625 1.61261L19.1125 5.36261C18.996 5.47916 18.9035 5.61753 18.8404 5.7698C18.7773 5.92208 18.7449 6.08529 18.7449 6.25011C18.7449 6.58299 18.8771 6.90223 19.1125 7.13761C19.3479 7.37299 19.6671 7.50523 20 7.50523C20.3329 7.50523 20.6521 7.37299 20.8875 7.13761L22.5 5.51261V12.5001C22.5 12.8316 22.6317 13.1496 22.8661 13.384C23.1005 13.6184 23.4185 13.7501 23.75 13.7501C24.0815 13.7501 24.3995 13.6184 24.6339 13.384C24.8683 13.1496 25 12.8316 25 12.5001V5.51261L26.6125 7.13761C26.7287 7.25477 26.867 7.34777 27.0193 7.41123C27.1716 7.47469 27.335 7.50736 27.5 7.50736C27.665 7.50736 27.8284 7.47469 27.9807 7.41123C28.133 7.34777 28.2713 7.25477 28.3875 7.13761C28.5047 7.02141 28.5977 6.88316 28.6611 6.73083C28.7246 6.57851 28.7572 6.41513 28.7572 6.25011C28.7572 6.0851 28.7246 5.92172 28.6611 5.76939C28.5977 5.61707 28.5047 5.47882 28.3875 5.36261Z" fill="white"/>
</svg>
