<svg width="40" height="40" viewBox="0 0 40 40" fill="none" xmlns="http://www.w3.org/2000/svg">
<g clip-path="url(#clip0_347_35)">
<path d="M33.75 7.5H6.25C5.55964 7.5 5 8.05964 5 8.75V31.25C5 31.9404 5.55964 32.5 6.25 32.5H33.75C34.4404 32.5 35 31.9404 35 31.25V8.75C35 8.05964 34.4404 7.5 33.75 7.5Z" stroke="#4BA57D" stroke-width="2" stroke-linecap="round" stroke-linejoin="round"/>
<path d="M5 26.2501L12.8594 18.3907C12.9757 18.2726 13.1143 18.1788 13.2672 18.1148C13.4201 18.0508 13.5842 18.0178 13.75 18.0178C13.9158 18.0178 14.0799 18.0508 14.2328 18.1148C14.3857 18.1788 14.5243 18.2726 14.6406 18.3907L21.6094 25.3595C21.7257 25.4776 21.8643 25.5714 22.0172 25.6354C22.1701 25.6994 22.3342 25.7324 22.5 25.7324C22.6658 25.7324 22.8299 25.6994 22.9828 25.6354C23.1357 25.5714 23.2743 25.4776 23.3906 25.3595L26.6094 22.1407C26.7257 22.0226 26.8643 21.9288 27.0172 21.8648C27.1701 21.8008 27.3342 21.7678 27.5 21.7678C27.6658 21.7678 27.8299 21.8008 27.9828 21.8648C28.1357 21.9288 28.2743 22.0226 28.3906 22.1407L35 28.7501" stroke="#4BA57D" stroke-width="2" stroke-linecap="round" stroke-linejoin="round"/>
<path d="M24.375 17.5C25.4105 17.5 26.25 16.6605 26.25 15.625C26.25 14.5895 25.4105 13.75 24.375 13.75C23.3395 13.75 22.5 14.5895 22.5 15.625C22.5 16.6605 23.3395 17.5 24.375 17.5Z" fill="#4BA57D"/>
</g>
<defs>
<clipPath id="clip0_347_35">
<rect width="40" height="40" fill="white"/>
</clipPath>
</defs>
</svg>
