<svg width="30" height="30" viewBox="0 0 30 30" fill="none" xmlns="http://www.w3.org/2000/svg">
<path d="M6.56836 13.9512L6.5625 14.748C6.56836 18.5918 9.25781 21.8145 12.8965 22.7285C12.9727 22.7344 13.0488 22.7578 13.1191 22.7812C13.4648 22.8984 13.7109 23.1855 13.8281 23.5313V26.9707C13.8281 27.6094 14.3496 28.125 15 28.125H15.0059C15.6562 28.125 16.1719 27.6094 16.1719 26.9707V23.5254C16.2891 23.1797 16.5293 22.8984 16.875 22.7812C16.9453 22.7578 17.0215 22.7344 17.1035 22.7285C20.7422 21.8145 23.4375 18.5918 23.4375 14.748V13.9512C23.4375 13.3418 22.916 12.8438 22.2949 12.8438C21.6738 12.8438 21.1523 13.3359 21.1523 13.9512V14.748C21.1523 16.418 20.4785 17.918 19.3594 19.0137C18.2344 20.1035 16.7051 20.7832 14.9941 20.7832C13.2832 20.7832 11.7656 20.1094 10.6465 19.0137C9.52734 17.918 8.84766 16.4121 8.84766 14.748V13.9512C8.84766 13.3418 8.33203 12.8438 7.70508 12.8438C7.08398 12.8438 6.56836 13.3418 6.56836 13.9512Z" fill="white"/>
<path d="M10.4883 6.31055V14.7363C10.4883 17.1855 12.5215 19.1719 15.0293 19.1719C17.5371 19.1719 19.5703 17.1855 19.5703 14.7363V6.31055C19.5703 3.86133 17.5371 1.875 15.0293 1.875C12.5215 1.875 10.4883 3.86133 10.4883 6.31055Z" fill="white"/>
</svg>
