<svg width="24" height="20" viewBox="0 0 24 20" fill="none" xmlns="http://www.w3.org/2000/svg">
<path d="M12.992 17.4266L16.492 18.9583C16.8441 19.1118 17.2408 19.1803 17.6371 19.1558C18.0334 19.1314 18.4137 19.0151 18.7349 18.8201C19.0561 18.6251 19.3054 18.3591 19.4548 18.0522C19.6041 17.7453 19.6475 17.4097 19.58 17.0833L18.913 13.8391C18.8543 13.5553 18.8795 13.2637 18.9863 12.9898C19.0931 12.7158 19.2783 12.4676 19.526 12.2666L22.354 9.96914C22.6388 9.73786 22.8403 9.44478 22.9356 9.12306C23.0309 8.80134 23.0163 8.46381 22.8934 8.14864C22.7705 7.83348 22.5443 7.55325 22.2403 7.33965C21.9362 7.12605 21.5665 6.98761 21.173 6.93998L17.264 6.46664C16.9229 6.42451 16.5992 6.3141 16.3205 6.14488C16.0419 5.97565 15.8166 5.75265 15.664 5.49498L13.911 2.54664C13.735 2.24948 13.4628 1.99927 13.1251 1.82432C12.7874 1.64936 12.3977 1.55664 12 1.55664C11.6024 1.55664 11.2126 1.64936 10.8749 1.82432C10.5372 1.99927 10.265 2.24948 10.089 2.54664L8.34101 5.49998C8.18842 5.75765 7.96315 5.98065 7.68449 6.14988C7.40583 6.3191 7.08209 6.42951 6.74101 6.47164L2.83201 6.94498C2.43848 6.99261 2.0688 7.13105 1.76477 7.34465C1.46073 7.55825 1.23449 7.83848 1.11161 8.15364C0.988733 8.46881 0.974132 8.80634 1.06946 9.12806C1.16478 9.44978 1.36623 9.74286 1.65101 9.97414L4.47901 12.2716C4.72671 12.4726 4.91196 12.7208 5.01877 12.9948C5.12557 13.2687 5.15071 13.5603 5.09201 13.8441L4.42001 17.0833C4.352 17.4101 4.39518 17.7463 4.54466 18.0537C4.69415 18.3611 4.94397 18.6275 5.26581 18.8227C5.58766 19.0178 5.96866 19.134 6.36566 19.158C6.76265 19.1819 7.15977 19.1128 7.51201 18.9583L11.012 17.4266C11.3175 17.2934 11.6572 17.2238 12.002 17.2238C12.3468 17.2238 12.6865 17.2934 12.992 17.4266Z" fill="url(#paint0_linear_167_124)"/>
<defs>
<linearGradient id="paint0_linear_167_124" x1="12" y1="1.46248" x2="12" y2="19.23" gradientUnits="userSpaceOnUse">
<stop stop-color="#FFF650"/>
<stop offset="1" stop-color="#FFAB17"/>
</linearGradient>
</defs>
</svg>
