<svg width="36" height="26" viewBox="0 0 36 26" fill="none" xmlns="http://www.w3.org/2000/svg">
<path d="M4.25 0.5C2.19434 0.5 0.5 2.19434 0.5 4.25V21.75C0.5 23.8057 2.19434 25.5 4.25 25.5H31.75C33.8057 25.5 35.5 23.8057 35.5 21.75V4.25C35.5 2.19434 33.8057 0.5 31.75 0.5H4.25ZM4.25 3H31.75C32.458 3 33 3.54199 33 4.25V21.75C33 22.458 32.458 23 31.75 23H4.25C3.54199 23 3 22.458 3 21.75V4.25C3 3.54199 3.54199 3 4.25 3ZM11.75 5.5C9.00098 5.5 6.75 7.75098 6.75 10.5C6.75 11.8916 7.3457 13.1465 8.27344 14.0547C6.6084 15.1826 5.5 17.1016 5.5 19.25H8C8 17.165 9.66504 15.5 11.75 15.5C13.835 15.5 15.5 17.165 15.5 19.25H18C18 17.1016 16.8916 15.1826 15.2266 14.0547C16.1543 13.1465 16.75 11.8916 16.75 10.5C16.75 7.75098 14.499 5.5 11.75 5.5ZM20.5 6.75V9.25H30.5V6.75H20.5ZM11.75 8C13.1465 8 14.25 9.10352 14.25 10.5C14.25 11.8965 13.1465 13 11.75 13C10.3535 13 9.25 11.8965 9.25 10.5C9.25 9.10352 10.3535 8 11.75 8ZM20.5 11.75V14.25H30.5V11.75H20.5ZM20.5 16.75V19.25H26.75V16.75H20.5Z" fill="#2A5E47"/>
</svg>
