<svg width="26" height="30" viewBox="0 0 26 30" fill="none" xmlns="http://www.w3.org/2000/svg">
<path d="M3.39067 29.3749C2.911 29.374 2.43982 29.2483 2.02349 29.01C1.08599 28.4788 0.503174 27.4475 0.503174 26.328V3.67177C0.503174 2.54911 1.08599 1.52099 2.02349 0.989737C2.44974 0.744766 2.93397 0.618789 3.42556 0.624973C3.91716 0.631158 4.39806 0.769277 4.81802 1.02489L24.1813 12.6155C24.5848 12.8686 24.9175 13.2199 25.1481 13.6367C25.3787 14.0535 25.4997 14.522 25.4997 14.9983C25.4997 15.4747 25.3787 15.9432 25.1481 16.3599C24.9175 16.7767 24.5848 17.1281 24.1813 17.3811L4.81489 28.9749C4.38512 29.2347 3.89287 29.373 3.39067 29.3749Z" fill="#4BA57D"/>
</svg>
